<svg width="882" height="1135" viewBox="0 0 882 1135" fill="none" xmlns="http://www.w3.org/2000/svg">
<path fill-rule="evenodd" clip-rule="evenodd" d="M882 0L0 0L0 1134.99H882V0ZM58.3939 61.9575C46.3393 61.9575 36.5672 52.0785 36.5672 39.8922C36.5672 27.7058 46.3393 17.8268 58.3939 17.8268C70.4485 17.8268 80.2207 27.7058 80.2207 39.8922C80.2207 52.0785 70.4485 61.9575 58.3939 61.9575ZM133.384 39.8922C133.384 52.0785 143.156 61.9575 155.211 61.9575C167.265 61.9575 177.037 52.0785 177.037 39.8922C177.037 27.7058 167.265 17.8268 155.211 17.8268C143.156 17.8268 133.384 27.7058 133.384 39.8922ZM252.029 61.9575C239.975 61.9575 230.202 52.0785 230.202 39.8922C230.202 27.7058 239.975 17.8268 252.029 17.8268C264.084 17.8268 273.856 27.7058 273.856 39.8922C273.856 52.0785 264.084 61.9575 252.029 61.9575ZM327.02 39.8922C327.02 52.0785 336.793 61.9575 348.847 61.9575C360.902 61.9575 370.674 52.0785 370.674 39.8922C370.674 27.7058 360.902 17.8268 348.847 17.8268C336.793 17.8268 327.02 27.7058 327.02 39.8922ZM445.664 61.9575C433.609 61.9575 423.837 52.0785 423.837 39.8922C423.837 27.7058 433.609 17.8268 445.664 17.8268C457.719 17.8268 467.491 27.7058 467.491 39.8922C467.491 52.0785 457.719 61.9575 445.664 61.9575ZM520.656 39.8922C520.656 52.0785 530.428 61.9575 542.483 61.9575C554.537 61.9575 564.309 52.0785 564.309 39.8922C564.309 27.7058 554.537 17.8268 542.483 17.8268C530.428 17.8268 520.656 27.7058 520.656 39.8922ZM639.301 61.9575C627.247 61.9575 617.474 52.0785 617.474 39.8922C617.474 27.7058 627.247 17.8268 639.301 17.8268C651.356 17.8268 661.128 27.7058 661.128 39.8922C661.128 52.0785 651.356 61.9575 639.301 61.9575ZM714.291 39.8922C714.291 52.0785 724.063 61.9575 736.117 61.9575C748.172 61.9575 757.944 52.0785 757.944 39.8922C757.944 27.7058 748.172 17.8268 736.117 17.8268C724.063 17.8268 714.291 27.7058 714.291 39.8922ZM832.936 61.9575C820.881 61.9575 811.109 52.0785 811.109 39.8922C811.109 27.7058 820.881 17.8268 832.936 17.8268C844.99 17.8268 854.763 27.7058 854.763 39.8922C854.763 52.0785 844.99 61.9575 832.936 61.9575Z" fill="white"/>
</svg>
